# xmcd CD database file
#
# Track frame offsets:
#	150
#	18815
#	35975
#	51707
#	70312
#	86830
#	110280
#	127930
#	148377
#	172040
#	192205
#	211692
#	231670
#	252517
#
# Disc length: 3626 seconds
#
# Revision: 0
# Processed by: cddbd v1.5PL3 Copyright (c) Steve Scherf et al.
# Submitted via: CDex 1.50beta10
#
DISCID=d90e280e
DTITLE=沢田研二 - Julie Special Disc 2
DYEAR=1900
DGENRE=フォークロック
TTITLE0=コバルトの季節の中で
TTITLE1=さよならをいう気もない
TTITLE2=勝手にしやがれ
TTITLE3=MEMORIES
TTITLE4=憎みきれないろくでなし
TTITLE5=サムライ
TTITLE6=ダーリング
TTITLE7=ヤマトより愛をこめて
TTITLE8=LOVE
TTITLE9=カサブランカ・ダンディ
TTITLE10=OH!ギャル
TTITLE11=ロンリー・ウルフ
TTITLE12=TOKIO
TTITLE13=恋のバッド・チューニング
EXTD=
EXTT0=
EXTT1=
EXTT2=
EXTT3=
EXTT4=
EXTT5=
EXTT6=
EXTT7=
EXTT8=
EXTT9=
EXTT10=
EXTT11=
EXTT12=
EXTT13=
PLAYORDER=
